<?xml version="1.0" encoding="UTF-8" standalone="no"?>
<svg width="149px" height="34px" viewBox="0 0 149 34" version="1.1" xmlns="http://www.w3.org/2000/svg" xmlns:xlink="http://www.w3.org/1999/xlink">
    <!-- Generator: Sketch 3.6.1 (26313) - http://www.bohemiancoding.com/sketch -->
    <title>Logo</title>
    <desc>Created with Sketch.</desc>
    <defs></defs>
    <g id="Page-1" stroke="none" stroke-width="1" fill="none" fill-rule="evenodd">
        <g id="1-Home-MVP" transform="translate(-565.000000, -30.000000)">
            <g id="Main">
                <g id="Logo" transform="translate(565.000000, 30.000000)">
                    <path d="M46.7886111,3.07902778 C45.89,3.07902778 45.1302778,3.85402778 45.1302778,4.77208333 L45.1302778,26.6845833 C45.1302778,27.6026389 45.89,28.3776389 46.7886111,28.3776389 C47.7219444,28.3776389 48.4816667,27.6179167 48.4816667,26.6845833 L48.4816667,4.77208333 C48.4816667,3.83875 47.7219444,3.07902778 46.7886111,3.07902778" id="Fill-1" fill="#fff"></path>
                    <path d="M62.1263889,9.23472222 C59.6777778,9.23472222 57.7138889,10.1875 56.2736111,12.0694444 L56.2736111,11.1027778 C56.2736111,10.1722222 55.5444444,9.44444444 54.6138889,9.44444444 C53.7194444,9.44444444 52.9902778,10.1888889 52.9902778,11.1027778 L52.9902778,26.7180556 C52.9902778,27.6486111 53.7180556,28.3777778 54.6486111,28.3777778 C55.575,28.3777778 56.2736111,27.6638889 56.2736111,26.7180556 L56.2736111,17.6055556 C56.2736111,14.4666667 58.3652778,12.275 61.3611111,12.275 C64.2861111,12.275 66.0319444,14.1902778 66.0319444,17.3972222 L66.0319444,26.7180556 C66.0319444,27.6486111 66.7611111,28.3777778 67.6916667,28.3777778 C68.6027778,28.3777778 69.3152778,27.6486111 69.3152778,26.7180556 L69.3152778,16.7375 C69.3152778,12.1805556 66.4944444,9.23472222 62.1263889,9.23472222" id="Fill-3" fill="#fff"></path>
                    <path d="M80.5094444,17.3516667 L80.4219444,17.6405556 L80.4455556,17.3322222 C78.2108333,16.6516667 76.0983333,16.01 76.0983333,14.4752778 C76.0983333,13.0961111 77.3747222,12.1697222 79.2747222,12.1697222 C80.6913889,12.1697222 82.2636111,12.6377778 83.8344444,13.5294444 C83.9622222,13.5933333 84.2261111,13.7002778 84.5608333,13.7002778 C85.3802778,13.7002778 86.0455556,13.0502778 86.0455556,12.2502778 C86.0455556,11.6947222 85.7441667,11.1822222 85.2261111,10.8711111 C83.3830556,9.87527778 81.24,9.30444444 79.3441667,9.30444444 C75.5622222,9.30444444 72.9205556,11.5461111 72.9205556,14.8238889 C72.9205556,18.4405556 76.4858333,19.4530556 79.0886111,20.1933333 C81.5052778,20.8683333 83.3538889,21.51 83.3538889,23.1363889 C83.3538889,24.6613889 81.9802778,25.6863889 79.9358333,25.6863889 C78.0802778,25.6863889 76.2177778,25.06 74.4205556,23.8391667 C74.1983333,23.6627778 73.8969444,23.5641667 73.5705556,23.5641667 C72.7511111,23.5641667 72.0858333,24.2155556 72.0858333,25.0155556 C72.0858333,25.5919444 72.4025,26.0225 72.6997222,26.2336111 C74.7316667,27.685 77.3844444,28.5516667 79.7969444,28.5516667 C83.8052778,28.5516667 86.4983333,26.2641667 86.4983333,22.7891667 C86.4983333,19.1461111 82.8941667,18.0669444 80.5094444,17.3516667" id="Fill-5" fill="#fff"></path>
                    <path d="M99.3781944,12.2391667 C102.87125,12.2391667 105.405972,15.0377778 105.405972,18.8933333 L105.405972,18.9627778 C105.405972,22.86 102.926806,25.5822222 99.3781944,25.5822222 C96.3295833,25.5822222 93.1768056,23.0919444 93.1768056,18.8586111 C93.1768056,14.7697222 96.3948611,12.2391667 99.3781944,12.2391667 M99.8643056,9.235 C97.2254167,9.235 95.0629167,10.3405556 93.2809722,12.6072222 L93.2809722,11.1030556 C93.2809722,10.1725 92.5518056,9.44333333 91.62125,9.44333333 C90.7101389,9.44333333 89.9976389,10.1725 89.9976389,11.1030556 L89.9976389,32.2836111 C89.9976389,33.2127778 90.7254167,33.9419444 91.6559722,33.9419444 C92.5823611,33.9419444 93.2809722,33.2280556 93.2809722,32.2836111 L93.2809722,25.3669444 C95.0184722,27.5044444 97.2295833,28.5863889 99.8643056,28.5863889 C104.176806,28.5863889 108.75875,25.2016667 108.75875,18.8586111 C108.75875,12.6072222 104.176806,9.235 99.8643056,9.235" id="Fill-7" fill="#fff"></path>
                    <path d="M113.395556,2.55680556 C112.313611,2.55680556 111.5275,3.28319444 111.5275,4.28597222 L111.5275,4.73736111 C111.5275,5.72347222 112.330278,6.46652778 113.395556,6.46652778 C114.480278,6.46652778 115.298333,5.72347222 115.298333,4.73736111 L115.298333,4.28597222 C115.298333,3.28319444 114.498333,2.55680556 113.395556,2.55680556" id="Fill-9" fill="#fff"></path>
                    <path d="M113.395556,9.44375 C112.499722,9.44375 111.770556,10.1881944 111.770556,11.1020833 L111.770556,26.71875 C111.770556,27.6479167 112.499722,28.3770833 113.430278,28.3770833 C114.356667,28.3770833 115.053889,27.6631944 115.053889,26.71875 L115.053889,11.1020833 C115.053889,10.1729167 114.326111,9.44375 113.395556,9.44375" id="Fill-11" fill="#fff"></path>
                    <path d="M128.977361,9.37402778 C126.795417,9.37402778 124.502361,10.9184722 123.088472,13.2448611 L123.088472,11.1031944 C123.088472,10.1726389 122.360694,9.44347222 121.430139,9.44347222 C120.534306,9.44347222 119.805139,10.1879167 119.805139,11.1031944 L119.805139,26.7184722 C119.805139,27.6490278 120.534306,28.3768056 121.463472,28.3768056 C122.374583,28.3768056 123.088472,27.6490278 123.088472,26.7184722 L123.088472,20.5976389 C123.088472,16.1018056 125.355139,13.1448611 129.160694,12.6879167 C130.021806,12.55875 130.600972,11.8948611 130.600972,11.0323611 C130.600972,10.07125 129.917639,9.37402778 128.977361,9.37402778" id="Fill-13" fill="#fff"></path>
                    <path d="M148.722639,18.6919444 C148.740694,14.0002778 145.768472,9.235 140.072639,9.235 C135.067083,9.235 131.144861,13.4780556 131.144861,18.9627778 C131.144861,24.4683333 135.132361,28.6211111 140.42125,28.6211111 C143.239306,28.6211111 145.39625,27.7586111 147.403194,25.8336111 C147.737917,25.5391667 147.922639,25.1488889 147.922639,24.7363889 C147.922639,23.9363889 147.255972,23.2863889 146.437917,23.2863889 C145.989306,23.2863889 145.676806,23.5044444 145.468472,23.6794444 C144.001806,25.0294444 142.372639,25.6863889 140.489306,25.6863889 C137.330972,25.6863889 134.960139,23.4975 134.500417,20.2030556 C134.500417,20.2030556 134.40875,19.5669444 134.40875,18.9266667 C134.40875,18.2877778 134.500417,17.6155556 134.500417,17.6155556 C134.950417,14.3502778 137.175417,12.1002778 140.003194,12.1002778 C143.504583,12.1002778 145.078194,14.8905556 145.405972,17.6155556 L137.347639,17.6155556 C136.632361,17.6155556 136.053194,18.1961111 136.053194,18.91 L136.053194,18.91 C136.053194,19.6238889 136.632361,20.2030556 137.347639,20.2030556 L147.168472,20.2030556 C148.00875,20.2030556 148.719861,19.5336111 148.722639,18.6919444" id="Fill-15" fill="#fff"></path>
                    <path d="M35.8504167,25.3065278 C35.5559722,25.8176389 35.0781944,26.1843056 34.5073611,26.3356944 C33.9365278,26.4898611 33.3393056,26.4106944 32.8281944,26.1148611 L23.2281944,20.5731944 C22.8226389,20.3398611 22.3156944,20.3690278 21.9393056,20.6468056 C21.59625,20.9023611 21.4726389,21.3134722 21.4726389,21.7370833 L21.4726389,26.89125 C21.4726389,28.1106944 20.4795833,29.10375 19.2601389,29.10375 C18.0420833,29.10375 17.0504167,28.1106944 17.0504167,26.89125 L17.0504167,17.3829167 C17.0504167,16.7329167 16.5226389,16.2051389 15.8740278,16.2051389 C15.2240278,16.2051389 14.6976389,16.7329167 14.6976389,17.3829167 L14.6976389,20.90375 L5.67402778,26.1148611 C5.16152778,26.4106944 4.56430556,26.4884722 3.99486111,26.3356944 C3.42263889,26.1843056 2.94486111,25.8176389 2.65041667,25.3079167 C2.04208333,24.2495833 2.40597222,22.8940278 3.46152778,22.2843056 L13.0504167,16.7481944 C13.3365278,16.5843056 13.5393056,16.3065278 13.6115278,15.9856944 C13.7990278,15.1426389 13.1823611,14.7856944 12.6393056,14.4704167 L3.46152778,9.17180556 C2.95041667,8.87736111 2.58375,8.39958333 2.43097222,7.83013889 C2.27680556,7.25791667 2.35597222,6.66208333 2.65041667,6.14958333 C2.94486111,5.63986111 3.42263889,5.27319444 3.99486111,5.12041667 C4.56430556,4.96763889 5.16152778,5.04541667 5.67402778,5.34125 L15.2726389,10.8843056 C15.6781944,11.1190278 16.1851389,11.0898611 16.5615278,10.8106944 C16.9045833,10.5551389 17.0295833,10.1440278 17.0295833,9.72041667 L17.0295833,4.56486111 C17.0295833,3.34680556 18.02125,2.35375 19.2406944,2.35375 C20.4601389,2.35375 21.4518056,3.34680556 21.4518056,4.56486111 L21.4518056,14.0745833 C21.4518056,14.7245833 21.9781944,15.2523611 22.6268056,15.2523611 C23.2768056,15.2523611 23.8031944,14.7245833 23.8031944,14.0745833 L23.8031944,10.5523611 L32.8281944,5.34263889 C33.3393056,5.04680556 33.9365278,4.96763889 34.5073611,5.12041667 C35.0781944,5.27319444 35.5559722,5.63986111 35.8504167,6.14958333 C36.45875,7.20791667 36.09625,8.56347222 35.0406944,9.17319444 L25.4504167,14.7093056 C25.1643056,14.8745833 24.9615278,15.1509722 24.8893056,15.4718056 C24.7018056,16.3148611 25.3184722,16.6718056 25.8629167,16.9856944 L35.0406944,22.2843056 C35.5504167,22.57875 35.9170833,23.0565278 36.07125,23.6273611 C36.2240278,24.1981944 36.1448611,24.7940278 35.8504167,25.3065278 M38.3434722,23.0176389 C38.0281944,21.8398611 37.2726389,20.8565278 36.2184722,20.2468056 C34.0240278,18.9815278 30.4990278,16.9454167 28.3920833,15.72875 L36.2184722,11.2106944 C38.3948611,9.95236111 39.14625,7.15513889 37.8879167,4.97458333 C37.2795833,3.91902778 36.2934722,3.16347222 35.1156944,2.84680556 C34.7226389,2.74263889 34.3240278,2.68986111 33.9281944,2.68986111 C33.1365278,2.68986111 32.3545833,2.89819444 31.6518056,3.30375 L23.8031944,7.83569444 L23.8031944,4.56486111 C23.8031944,2.04819444 21.7559722,-0.000416666667 19.2406944,-0.000416666667 C16.7226389,-0.000416666667 14.6754167,2.04819444 14.6754167,4.56486111 L14.6754167,7.82180556 L6.85041667,3.30236111 C5.79208333,2.69402778 4.56291667,2.53291667 3.38513889,2.84680556 C2.20736111,3.16208333 1.22263889,3.91902778 0.612916667,4.97458333 C0.00319444444,6.03152778 -0.157916667,7.26069444 0.157361111,8.43847222 C0.474027778,9.61763889 1.22958333,10.6009722 2.28375,11.2106944 C4.47819444,12.4759722 8.00180556,14.5106944 10.10875,15.7273611 L2.28375,20.2468056 C0.105972222,21.50375 -0.644027778,24.3009722 0.612916667,26.4815278 C1.22263889,27.5384722 2.20736111,28.2940278 3.38513889,28.6106944 C3.77819444,28.7148611 4.17819444,28.76625 4.57402778,28.76625 C5.36430556,28.76625 6.14625,28.5593056 6.85041667,28.15375 L14.6976389,23.6218056 L14.6976389,26.89125 C14.6976389,29.4079167 16.7448611,31.4565278 19.2601389,31.4565278 C21.7795833,31.4565278 23.8254167,29.4079167 23.8254167,26.89125 L23.8254167,23.6343056 L31.6518056,28.15375 C32.70875,28.7634722 33.9379167,28.9245833 35.1156944,28.6106944 C36.2934722,28.2940278 37.2795833,27.5384722 37.8879167,26.4815278 C38.4976389,25.4259722 38.65875,24.1968056 38.3434722,23.0176389" id="icon" fill="#E7158B"></path>
                </g>
            </g>
        </g>
    </g>
</svg>